<svg width="579" height="326" viewBox="0 0 579 326" fill="none" xmlns="http://www.w3.org/2000/svg">
<path d="M0 0H578.428V325.366H0V0Z" fill="#111111"/>
<path fill-rule="evenodd" clip-rule="evenodd" d="M110.786 195.514V166.069H97V154.077H110.786V149.817H97V138.094H110.786V119H142.103C150.311 119 156.387 120.941 160.327 124.822C164.267 128.666 166.239 134.598 166.239 142.619C166.239 148.699 164.786 153.587 161.875 157.284C158.964 160.943 154.919 163.49 149.722 164.919L167.342 195.514H151.048L134.865 166.127H125.479V195.514H110.786ZM125.479 154.099H144.038C148.64 154.099 150.942 151.552 150.942 146.463V138.606C150.942 136.043 150.427 134.213 149.393 133.111C148.402 131.977 146.615 131.408 144.038 131.408H125.479V154.099ZM167.973 166.733C167.973 162.23 168.599 158.148 169.85 154.484C171.102 150.787 172.851 147.634 175.1 145.034C177.385 142.397 180.126 140.367 183.329 138.938C186.532 137.509 190.084 136.797 193.987 136.797C197.89 136.797 201.426 137.493 204.592 138.885C207.794 140.277 210.52 142.197 212.768 144.654C215.048 147.069 216.782 149.964 217.959 153.334C219.173 156.704 219.783 160.347 219.783 164.265V171.353H182.725V175.144C182.725 178.587 183.849 181.261 186.092 183.165C188.372 185.031 191.06 185.965 194.157 185.965C197.248 185.965 199.772 185.158 201.723 183.55C203.674 181.936 204.836 179.668 205.202 176.737H219.343C218.421 183.107 215.716 188.069 211.225 191.623C206.771 195.14 201.023 196.896 193.992 196.896C189.904 196.896 186.24 196.163 183 194.697C179.798 193.231 177.072 191.18 174.824 188.543C172.613 185.907 170.921 182.737 169.744 179.041C168.562 175.339 167.973 171.237 167.973 166.733ZM182.719 160.416H205.308V158.386C205.308 155.238 204.242 152.675 202.105 150.697C199.968 148.72 197.264 147.734 193.987 147.734C190.747 147.734 188.059 148.725 185.922 150.697C183.785 152.675 182.719 155.238 182.719 158.386V160.416ZM223.946 177.28H238.087C238.676 183.064 242.154 185.959 248.528 185.959C251.253 185.959 253.57 185.464 255.485 184.478C257.399 183.455 258.359 181.841 258.359 179.642C258.359 177.554 257.568 176.051 255.983 175.139C254.398 174.184 252.319 173.435 249.742 172.887L239.8 170.746C230.155 168.658 225.33 163.184 225.33 154.325C225.33 151.836 225.828 149.527 226.82 147.407C227.848 145.282 229.322 143.436 231.237 141.859C233.151 140.283 235.489 139.059 238.252 138.179C241.014 137.261 244.159 136.808 247.695 136.808C254.249 136.808 259.626 138.384 263.82 141.532C268.02 144.681 270.262 149.442 270.559 155.812H256.418C256.269 153.102 255.405 151.088 253.82 149.769C252.239 148.414 250.193 147.739 247.69 147.739C245.261 147.739 243.273 148.272 241.725 149.332C240.214 150.355 239.461 151.805 239.461 153.671C239.461 155.538 240.033 156.93 241.173 157.848C242.35 158.728 243.878 159.367 245.76 159.773L257.192 162.246C259.292 162.683 261.28 163.343 263.157 164.223C265.071 165.067 266.71 166.164 268.073 167.519C269.435 168.874 270.501 170.482 271.275 172.354C272.087 174.221 272.49 176.436 272.49 178.999C272.49 181.488 271.954 183.813 270.888 185.975C269.822 188.137 268.274 190.02 266.249 191.633C264.223 193.242 261.72 194.528 258.735 195.478C255.755 196.427 252.346 196.907 248.517 196.907C240.823 196.907 234.874 195.224 230.68 191.855C226.486 188.427 224.237 183.576 223.946 177.28ZM276.822 166.733C276.822 162.23 277.447 158.148 278.699 154.484C279.95 150.787 281.7 147.634 283.943 145.034C286.228 142.397 288.969 140.367 292.172 138.938C295.375 137.509 298.927 136.797 302.83 136.797C306.733 136.797 310.269 137.493 313.435 138.885C316.638 140.277 319.363 142.197 321.611 144.654C323.897 147.069 325.625 149.964 326.802 153.334C328.017 156.704 328.626 160.347 328.626 164.265V171.353H291.568V175.144C291.568 178.587 292.692 181.261 294.935 183.165C297.22 185.031 299.908 185.965 303 185.965C306.091 185.965 308.615 185.158 310.566 183.55C312.518 181.936 313.679 179.668 314.045 176.737H328.186C327.264 183.107 324.559 188.069 320.068 191.623C315.614 195.14 309.872 196.896 302.835 196.896C298.747 196.896 295.083 196.163 291.843 194.697C288.641 193.231 285.915 191.18 283.667 188.543C281.456 185.907 279.764 182.737 278.587 179.041C277.41 175.339 276.822 171.237 276.822 166.733ZM291.568 160.416H314.156V158.386C314.156 155.238 313.09 152.675 310.953 150.697C308.817 148.72 306.112 147.734 302.835 147.734C299.596 147.734 296.907 148.725 294.77 150.697C292.633 152.675 291.568 155.238 291.568 158.386V160.416ZM334.284 195.514V138.168H366.486V149.152H348.426V195.509H334.284V195.514ZM370.654 138.168H385.787L398.38 179.748H398.82L411.689 138.168H426.658L406.387 195.514H390.919L370.654 138.168ZM426.971 166.733C426.971 162.23 427.596 158.148 428.848 154.484C430.099 150.787 431.849 147.634 434.092 145.034C436.377 142.397 439.119 140.367 442.321 138.938C445.524 137.509 449.077 136.797 452.979 136.797C456.882 136.797 460.419 137.493 463.584 138.885C466.787 140.277 469.512 142.197 471.755 144.654C474.041 147.069 475.769 149.964 476.946 153.334C478.16 156.704 478.77 160.347 478.77 164.265V171.353H441.712V175.144C441.712 178.587 442.836 181.261 445.079 183.165C447.364 185.031 450.052 185.965 453.144 185.965C456.235 185.965 458.759 185.158 460.71 183.55C462.661 181.936 463.823 179.668 464.189 176.737H478.33C477.408 183.107 474.703 188.069 470.212 191.623C465.758 195.14 460.016 196.896 452.979 196.896C448.891 196.896 445.227 196.163 441.987 194.697C438.785 193.231 436.059 191.18 433.811 188.543C431.6 185.907 429.908 182.737 428.731 179.041C427.559 175.339 426.971 171.237 426.971 166.733ZM441.717 160.416H464.305V158.386C464.305 155.238 463.239 152.675 461.103 150.697C458.966 148.72 456.261 147.734 452.985 147.734C449.745 147.734 447.056 148.725 444.92 150.697C442.783 152.675 441.717 155.238 441.717 158.386V160.416Z" fill="#FAFAFA"/>
</svg>
